<?xml version="1.0" standalone="no"?>
<!DOCTYPE svg PUBLIC "-//W3C//DTD SVG 1.1//EN" "http://www.w3.org/Graphics/SVG/1.1/DTD/svg11.dtd">
<svg t="1623737151123" class="icon" viewBox="0 0 1126 1024" version="1.1" xmlns="http://www.w3.org/2000/svg" p-id="2502" xmlns:xlink="http://www.w3.org/1999/xlink" width="219.921875" height="200">
    <defs>
        <style type="text/css"></style>
    </defs>
    <path fill="rgb(97, 96, 96)" d="M0 887.4496h1126.4V1024H0v-136.5504z m872.96-392.8064l-248.1664 233.1136c-15.4112 14.0288-37.1712 23.1936-61.5936 23.1936a89.6 89.6 0 0 1-61.3376-23.296L253.1328 494.7968c-12.9536-12.544-21.248-28.7744-21.248-46.7456 0-38.6048 37.12-69.888 82.8416-69.888l1.8944 0.0512V377.856h163.7376V206.4384c0-38.6048 37.12-69.888 82.8416-69.888 45.7216 0 82.8416 31.232 82.8416 69.888V377.856h160.7168v0.512c1.6384 0 3.2256-0.2048 4.9152-0.2048 45.7216 0 82.8416 31.3344 82.8416 69.9392 0 17.92-8.2944 34.2016-21.504 46.592zM430.6944 0h265.0112v409.6H430.6944V0z" p-id="2503"></path>
</svg>