<?xml version="1.0" standalone="no"?>
<!DOCTYPE svg PUBLIC "-//W3C//DTD SVG 1.1//EN" "http://www.w3.org/Graphics/SVG/1.1/DTD/svg11.dtd">
<svg t="1623737809614" class="icon" viewBox="0 0 1024 1024" version="1.1" xmlns="http://www.w3.org/2000/svg" p-id="15945" xmlns:xlink="http://www.w3.org/1999/xlink" width="200" height="200">
    <defs>
        <style type="text/css"></style>
    </defs>
    <path fill="rgb(97, 96, 96)" d="M848.4864 998.5536H135.2192c-14.1312 0-25.6512-11.5712-25.6512-25.6512v-6.6048c0-14.1312 11.5712-25.6512 25.6512-25.6512h713.2672c14.1312 0 25.6512 11.5712 25.6512 25.6512v6.6048c0 14.08-11.5712 25.6512-25.6512 25.6512zM502.3232 798.976H147.7632c-14.1312 0-25.6512-11.5712-25.6512-25.6512v-6.6048c0-14.1312 11.5712-25.6512 25.6512-25.6512h354.56c14.1312 0 25.6512 11.5712 25.6512 25.6512v6.6048c0 14.08-11.52 25.6512-25.6512 25.6512zM369.3056 594.2272H147.3024c-14.1312 0-25.6512-11.5712-25.6512-25.6512v-6.6048c0-14.1312 11.5712-25.6512 25.6512-25.6512h222.0032c14.1312 0 25.6512 11.5712 25.6512 25.6512v6.6048c0 14.08-11.52 25.6512-25.6512 25.6512z" p-id="15946"></path>
    <path fill="rgb(97, 96, 96)" d="M848.4864 144.6912H135.2192c-14.1312 0-25.6512 11.5712-25.6512 25.6512v6.6048c0 14.1312 11.5712 25.6512 25.6512 25.6512h713.2672c14.1312 0 25.6512-11.5712 25.6512-25.6512v-6.6048c0-14.1312-11.5712-25.6512-25.6512-25.6512zM502.3232 349.0816H147.7632c-14.1312 0-25.6512 11.5712-25.6512 25.6512v6.6048c0 14.1312 11.5712 25.6512 25.6512 25.6512h354.56c14.1312 0 25.6512-11.5712 25.6512-25.6512v-6.6048c0-14.1312-11.52-25.6512-25.6512-25.6512z" p-id="15947"></path>
    <path fill="rgb(97, 96, 96)" d="M719.872 927.1296l160.256-256.8704-298.9056-1.9456z" p-id="15948"></path>
    <path fill="rgb(97, 96, 96)" d="M809.3696 706.8672l-160.0512 0.0512c-44.288 0-79.3088-36.096-77.7728-80.2304l18.0736-517.3248c1.536-44.1344 39.0656-80.2304 83.3536-80.2816l160.0512-0.0512c44.288 0 79.3088 36.096 77.7728 80.2304l-18.0736 517.3248c-1.536 44.1344-39.0144 80.2816-83.3536 80.2816z" p-id="15949"></path>
    <path fill="rgb(97, 96, 96)" d="M861.0304 693.1456c-14.5408 10.8032-32.4608 17.2544-51.6608 17.2544l-160 0.0512c-22.4768 0-43.3152-8.8064-58.7264-24.7808-15.36-15.872-23.3472-36.9152-22.5792-59.1872l18.0736-517.3248c1.5872-46.1312 40.6016-83.712 86.9376-83.712l160-0.0512c22.4768 0 43.3152 8.8064 58.7264 24.7296 15.36 15.872 23.3472 36.9152 22.5792 59.1872l-18.0736 517.3248c-0.9216 27.136-14.6944 51.2-35.2768 66.5088zM625.6128 48.4864c-18.8928 14.0288-31.488 36.1472-32.3584 60.928l-18.0736 517.3248c-0.7168 20.3264 6.6048 39.4752 20.5824 53.9648 14.08 14.5408 33.0752 22.5792 53.6064 22.5792l160.0512-0.0512c42.5472 0 78.336-34.4576 79.7696-76.8l18.0736-517.3248c0.7168-20.3264-6.6048-39.4752-20.5824-53.9648-14.08-14.5408-33.0752-22.5792-53.6064-22.5792l-160 0.0512c-17.664 0-34.0992 5.9392-47.4624 15.872z" p-id="15950"></path>
</svg>