<?xml version="1.0" standalone="no"?>
<!DOCTYPE svg PUBLIC "-//W3C//DTD SVG 1.1//EN" "http://www.w3.org/Graphics/SVG/1.1/DTD/svg11.dtd">
<svg t="1623395922010" class="icon" viewBox="0 0 1024 1024" version="1.1" xmlns="http://www.w3.org/2000/svg" p-id="2496" xmlns:xlink="http://www.w3.org/1999/xlink" width="200" height="200">
    <defs>
        <style type="text/css"></style>
    </defs>
    <path d="M725.333 0C795.99 0 1024 228.096 1024 298.667V896a128 128 0 0 1-128 128H128A128 128 0 0 1 0 896V128A128 128 0 0 1 128 0h597.333zM170.667 85.333H128A42.667 42.667 0 0 0 85.333 128v768A42.667 42.667 0 0 0 128 938.667h768A42.667 42.667 0 0 0 938.667 896V298.667c0-10.752-39.851-56.491-85.334-102.827v145.493a128 128 0 0 1-120.49 127.744l-7.51 0.256H298.667a128 128 0 0 1-127.744-120.49l-0.256-7.51v-256zM725.333 768a42.667 42.667 0 0 1 0 85.333H298.667a42.667 42.667 0 0 1 0-85.333h426.666z m-128-170.667a42.667 42.667 0 0 1 0 85.334H298.667a42.667 42.667 0 1 1 0-85.334h298.666z m128-512H256v256a42.667 42.667 0 0 0 37.632 42.411l5.035 0.256h426.666a42.667 42.667 0 0 0 42.326-37.632l0.341-5.035V114.86c-20.821-17.92-36.779-29.526-42.667-29.526z" p-id="2497"></path>
</svg>